<?xml version="1.0" encoding="utf-8"?>
<!-- Generator: Adobe Illustrator 22.0.0, SVG Export Plug-In . SVG Version: 6.00 Build 0)  -->
<svg version="1.1" id="Capa_1" xmlns="http://www.w3.org/2000/svg" xmlns:xlink="http://www.w3.org/1999/xlink" x="0px" y="0px"
	 width="114px" height="42px" viewBox="0 0 114 42" style="enable-background:new 0 0 114 42;" xml:space="preserve">
<style type="text/css">
	.st0{fill:#FFFFFF;}
</style>
<g>
	<g>
		<g>
			<path class="st0" d="M113.1,3.7c0-2-1.6-3.5-3.6-3.5L82.2,0.7c-2,0-3.5,1.6-3.5,3.6l0.4,21.9c0,0,0,0,0,0c0,2,1.6,3.5,3.6,3.5
				l27.3-0.5c2,0,3.5-1.6,3.5-3.6L113.1,3.7z M84.9,25.2L84.6,5.3l2.4,0l0.3,19.8L84.9,25.2z M107.2,20c-0.7,1.5-1.8,2.7-3.2,3.6
				c-1.4,0.9-3.4,1.3-6.1,1.4l-6.5,0.1L91.1,5.2l4.3-0.1c2.9-0.1,5,0.1,6.3,0.5c1.3,0.4,2.5,1,3.5,1.9c1,0.9,1.7,2,2.3,3.2
				c0.5,1.3,0.8,2.8,0.8,4.4C108.3,16.9,107.9,18.5,107.2,20z"/>
			<path class="st0" d="M103,9c-0.9-0.7-2-1.1-3.2-1.3c-1.2-0.2-3-0.3-5.2-0.2l-1.2,0l0.3,15.3l2.1,0c2.3,0,4-0.2,5.1-0.4
				c1.1-0.3,2-0.7,2.8-1.4c0.8-0.7,1.4-1.5,1.8-2.5c0.4-1,0.6-2.1,0.6-3.4c0-1.3-0.3-2.4-0.8-3.5C104.6,10.5,103.9,9.6,103,9z"/>
		</g>
		<path class="st0" d="M74.8,24.1c0,0,0.1-0.1,0.1-0.1v-8.6c0-1-0.1-1.9-0.3-2.6c-0.2-0.7-0.4-1.3-0.9-1.8c-0.4-0.5-0.9-0.9-1.5-1.2
			c-0.6-0.3-1.4-0.5-2.4-0.5c-0.7,0-1.5,0.2-2.2,0.5c-0.7,0.3-1.4,0.8-2.1,1.5l-0.4,0.3V3.3c0-0.1,0-0.1-0.1-0.2
			c0,0-0.1-0.1-0.2-0.1c-0.2-0.1-0.4-0.1-0.6-0.1c-0.3,0-0.6,0-1,0c-0.4,0-0.7,0-1,0c-0.2,0-0.4,0.1-0.6,0.1
			c-0.2,0.1-0.2,0.1-0.2,0.1c0,0-0.1,0.1-0.1,0.2V24c0,0.1,0,0.1,0.1,0.2c0,0,0.1,0.1,0.2,0.1c0.1,0,0.3,0.1,0.6,0.1
			c0.3,0,0.6,0,1,0s0.7,0,1,0c0.2,0,0.4-0.1,0.6-0.1c0.2-0.1,0.2-0.1,0.2-0.1c0,0,0.1-0.1,0-0.1v-9.4l0-0.1c0.6-0.7,1.1-1.3,1.7-1.6
			c0.6-0.4,1.1-0.6,1.7-0.6c0.4,0,0.8,0.1,1.2,0.3c0.3,0.2,0.6,0.4,0.8,0.7c0.2,0.3,0.4,0.6,0.5,1.1c0.1,0.4,0.2,0.9,0.2,1.6v8
			c0,0.1,0,0.1,0,0.1c0,0,0.1,0.1,0.2,0.1c0.1,0,0.3,0.1,0.6,0.1c0.3,0,0.6,0,1,0c0.4,0,0.7,0,0.9,0c0.2,0,0.4-0.1,0.6-0.1
			C74.7,24.2,74.8,24.1,74.8,24.1 M59.2,16.8c0-1-0.1-2-0.3-2.9c-0.2-0.9-0.5-1.7-1-2.4c-0.4-0.7-1-1.2-1.7-1.6
			c-0.7-0.4-1.6-0.6-2.6-0.6c-0.5,0-0.9,0-1.4,0.2c-0.4,0.1-0.8,0.3-1.2,0.5c-0.4,0.2-0.8,0.5-1.2,0.8c-0.4,0.3-0.8,0.7-1.2,1.1
			l-0.4,0.4V10c0-0.1,0-0.1,0-0.2c0,0-0.1-0.1-0.2-0.1c-0.2-0.1-0.3-0.1-0.5-0.1c-0.3,0-0.5,0-0.8,0c-0.3,0-0.6,0-0.8,0
			c-0.2,0-0.4,0.1-0.5,0.1c-0.1,0-0.1,0.1-0.2,0.1c0,0,0,0.1,0,0.2V33c0,0.1,0,0.1,0.1,0.2c0,0,0.1,0.1,0.2,0.1
			c0.1,0.1,0.3,0.1,0.6,0.1c0.2,0,0.6,0,0.9,0s0.7,0,1,0c0.2,0,0.4-0.1,0.6-0.1c0.1-0.1,0.2-0.1,0.2-0.1c0,0,0.1-0.1,0.1-0.2V14.6
			l0-0.1c0.3-0.4,0.6-0.8,0.9-1.1c0.3-0.3,0.6-0.5,0.9-0.7c0.3-0.2,0.6-0.3,0.9-0.4c0.3-0.1,0.6-0.1,0.9-0.1c0.6,0,1.1,0.1,1.5,0.4
			c0.4,0.3,0.7,0.6,0.9,1.1c0.2,0.4,0.4,1,0.5,1.5c0.1,0.4,0.1,0.8,0.1,1.2c0,2-0.5,4.3-4.2,5.1v3.2c3.7-0.5,5.7-2.2,6.7-3.6
			c0.4-0.5,0.7-1.2,1-1.8c0.1-0.2,0.1-0.3,0.1-0.5l0-0.1C59.1,18.2,59.2,17.5,59.2,16.8 M37.4,3.6c0,0-0.1,0.1-0.1,0.2v10.5
			c0,3.7,0.6,8.2,5.6,10.2v-3.9c-1.3-1-2-2.6-2-4.5V3.8c0-0.1,0-0.1-0.1-0.2c0,0-0.1-0.1-0.2-0.1c-0.2-0.1-0.4-0.1-0.6-0.1
			c-0.3,0-0.6,0-1,0c-0.4,0-0.7,0-1,0c-0.2,0-0.4,0.1-0.6,0.1C37.5,3.5,37.5,3.6,37.4,3.6 M18.7,21.1c0.4-0.8,0.6-1.7,0.6-2.7
			c0-0.8-0.1-1.5-0.4-2c-0.2-0.6-0.6-1.1-1-1.5c-0.4-0.4-0.9-0.8-1.4-1.1c-0.5-0.3-1.1-0.6-1.6-0.8c-0.5-0.2-1.1-0.5-1.6-0.7
			c-0.5-0.2-1-0.5-1.5-0.7c-0.4-0.2-0.8-0.6-1.1-0.9c-0.3-0.4-0.4-0.8-0.4-1.3c0-0.3,0.1-0.6,0.2-0.9c0.1-0.3,0.3-0.6,0.6-0.8
			c0.3-0.2,0.6-0.4,0.9-0.5c0.4-0.1,0.8-0.2,1.3-0.2c0.6,0,1.1,0.1,1.7,0.2c0.5,0.1,0.9,0.3,1.3,0.5c0.4,0.2,0.7,0.3,1,0.5
			c0.3,0.2,0.4,0.2,0.5,0.2c0.1,0,0.1,0,0.1,0C18,8.2,18,8.1,18,8c0-0.1,0.1-0.3,0.1-0.5c0-0.2,0-0.4,0-0.8c0-0.3,0-0.5,0-0.7
			c0-0.1,0-0.3-0.1-0.4c0-0.1,0-0.2-0.1-0.2c0-0.1-0.1-0.2-0.2-0.2c-0.1,0-0.2-0.2-0.6-0.4c-0.4-0.2-0.7-0.3-1.1-0.4
			c-0.4-0.1-0.9-0.2-1.3-0.3C13.4,4,12,4,10.7,4.4C9.9,4.6,9.1,5,8.5,5.5C7.9,5.9,7.4,6.5,7.1,7.2C6.8,7.9,6.6,8.8,6.6,9.7
			c0,0.8,0.1,1.5,0.4,2.1c0.2,0.6,0.6,1.1,1,1.5c0.4,0.4,0.9,0.8,1.4,1.1c0.5,0.3,1,0.6,1.6,0.8c0.5,0.2,1.1,0.5,1.6,0.7
			c0.5,0.2,1,0.5,1.4,0.7c0.4,0.3,0.8,0.6,1.1,0.9c0.3,0.4,0.4,0.8,0.4,1.3c0,0.4-0.1,0.8-0.2,1.2c-0.2,0.4-0.4,0.7-0.7,0.9
			c-0.3,0.2-0.7,0.4-1.1,0.5c-0.5,0.1-1,0.2-1.4,0.2c-0.8,0-1.5-0.1-2.1-0.3c-0.5-0.2-1.1-0.3-1.6-0.6c-0.4-0.2-0.7-0.4-1.1-0.6
			c-0.3-0.2-0.5-0.2-0.5-0.2c-0.1,0-0.1,0-0.2,0c0,0-0.1,0.1-0.1,0.2c0,0.1-0.1,0.3-0.1,0.5c0,0.3,0,0.5,0,0.8c0,0.5,0,0.8,0.1,1.1
			c0.1,0.2,0.1,0.4,0.2,0.5c0.1,0.1,0.3,0.3,0.6,0.4c0.3,0.2,0.7,0.3,1.1,0.5c0.5,0.2,1,0.3,1.6,0.4c0.6,0.1,1.3,0.2,2,0.2
			c1,0,2-0.1,2.9-0.4c0.9-0.2,1.7-0.6,2.4-1.2C17.8,22.6,18.4,21.9,18.7,21.1 M34.9,15.9c0-1-0.1-1.9-0.4-2.7
			c-0.2-0.8-0.6-1.5-1.2-2.1c-0.5-0.6-1.2-1-2-1.4c-0.8-0.3-1.8-0.5-3-0.5c-1.1,0-2.1,0.2-3,0.5c-0.8,0.3-1.6,0.9-2.2,1.5
			c-0.6,0.7-1.1,1.5-1.4,2.5c-0.3,1-0.5,2.1-0.5,3.3c0,1.3,0.2,2.4,0.5,3.4c0.3,0.9,0.8,1.7,1.4,2.3c0.6,0.6,1.4,1.1,2.3,1.4
			c0.9,0.3,2,0.5,3.3,0.5c0.7,0,1.3,0,2-0.1c0.6-0.1,1.2-0.2,1.6-0.3c0.4-0.1,0.8-0.2,1.2-0.4c0.4-0.2,0.5-0.2,0.5-0.2
			c0.1-0.1,0.1-0.1,0.1-0.2c0-0.1,0.1-0.2,0.1-0.2c0-0.1,0-0.2,0-0.4c0-0.2,0-0.3,0-0.6c0-0.3,0-0.5,0-0.6c0-0.1,0-0.2-0.1-0.3
			c0,0,0-0.1-0.1-0.1c-0.1-0.1-0.4,0-0.7,0.1c-0.3,0.1-0.6,0.2-1,0.3c-0.4,0.1-0.9,0.2-1.4,0.3c-0.5,0.1-1.2,0.2-1.9,0.2
			s-1.3-0.1-1.9-0.3c-0.5-0.2-0.9-0.5-1.3-0.8c-0.3-0.4-0.6-0.8-0.7-1.3C25.1,19.1,25,18.5,25,18v-0.2h8.9c0.3,0,0.6-0.1,0.8-0.3
			c0.2-0.2,0.3-0.5,0.3-0.9L34.9,15.9z M31.4,15.6H25l0-0.2c0-0.5,0.1-1,0.2-1.4c0.1-0.5,0.3-0.9,0.6-1.2c0.3-0.3,0.6-0.6,1-0.8
			c0.4-0.2,0.9-0.3,1.4-0.3c1.1,0,1.9,0.3,2.4,1c0.5,0.7,0.8,1.6,0.7,2.7L31.4,15.6z"/>
	</g>
	<g>
		<g>
			<path id="ge7ab_1_" class="st0" d="M39,32.8l-1.8-2.6H38l1.3,2l1.3-2h0.8l-1.8,2.6v2H39L39,32.8z M35.1,30.7h-1.5v-0.6h3.6v0.6
				h-1.5v4h-0.6V30.7z M32.3,30.1h0.6v4.6h-0.6V30.1z M29.5,30.7H28v-0.6h3.6v0.6h-1.5v4h-0.6V30.7z M23.3,30.1h0.8l2.6,3.8h0v-3.8
				h0.6v4.6h-0.8L23.9,31h0v3.8h-0.6L23.3,30.1z M19.3,30.1h3v0.6h-2.4v1.4h2.2v0.6h-2.2v1.5h2.5v0.6h-3.1V30.1z M14.9,34.1h0.8
				c0.3,0,0.5,0,0.8-0.1c0.2-0.1,0.4-0.2,0.6-0.3c0.2-0.1,0.3-0.3,0.4-0.5c0.1-0.2,0.2-0.5,0.2-0.7c0-0.1,0-0.3-0.1-0.5
				c-0.1-0.2-0.1-0.4-0.3-0.6c-0.1-0.2-0.3-0.3-0.6-0.5c-0.2-0.1-0.5-0.2-0.9-0.2h-0.9V34.1z M14.3,30.1h1.6c0.3,0,0.6,0,0.9,0.1
				c0.2,0.1,0.5,0.2,0.6,0.3s0.3,0.3,0.5,0.4c0.1,0.2,0.2,0.3,0.3,0.5c0.1,0.3,0.2,0.6,0.2,1c0,0.3-0.1,0.6-0.2,0.9
				c-0.1,0.3-0.3,0.5-0.5,0.7c-0.2,0.2-0.5,0.4-0.8,0.5c-0.4,0.1-0.7,0.2-1.1,0.2h-1.5L14.3,30.1z M12.6,30.1h0.6v4.6h-0.6V30.1z"/>
		</g>
		<g>
			<path id="ge7ac_1_" class="st0" d="M35.6,37h0.8l2.6,3.8h0V37h0.6v4.6h-0.8l-2.6-3.8h0v3.8h-0.6L35.6,37z M32.3,41.1
				c0.3,0,0.5,0,0.7-0.1c0.2-0.1,0.4-0.2,0.6-0.4c0.2-0.2,0.3-0.4,0.4-0.6c0.1-0.2,0.1-0.5,0.1-0.7s0-0.5-0.1-0.7
				c-0.1-0.2-0.2-0.4-0.4-0.6c-0.2-0.2-0.3-0.3-0.6-0.4c-0.2-0.1-0.5-0.1-0.7-0.1c-0.2,0-0.5,0-0.7,0.1c-0.2,0.1-0.4,0.2-0.6,0.4
				c-0.2,0.2-0.3,0.4-0.4,0.6c-0.1,0.2-0.1,0.5-0.1,0.7s0,0.5,0.1,0.7s0.2,0.4,0.4,0.6c0.2,0.2,0.3,0.3,0.6,0.4
				C31.8,41.1,32,41.1,32.3,41.1z M32.3,41.7c-0.4,0-0.7-0.1-1-0.2c-0.3-0.1-0.5-0.3-0.8-0.5c-0.2-0.2-0.4-0.5-0.5-0.8
				c-0.1-0.3-0.2-0.6-0.2-1s0.1-0.7,0.2-1c0.2-0.6,0.7-1,1.3-1.3c0.3-0.1,0.6-0.2,1-0.2c0.4,0,0.7,0.1,1,0.2s0.6,0.3,0.8,0.5
				c0.2,0.2,0.4,0.5,0.5,0.8s0.2,0.6,0.2,1c0,0.3-0.1,0.7-0.2,1c-0.2,0.6-0.7,1-1.3,1.3C33,41.7,32.6,41.7,32.3,41.7z M28.3,37H29
				v4.6h-0.6V37z M25.5,37.6H24V37h3.6v0.6h-1.5v4h-0.6L25.5,37.6z M22.5,39.9l-0.9-2.1h0l-0.9,2.1H22.5z M21.4,37H22l2,4.6h-0.7
				l-0.5-1.1h-2.2l-0.5,1.1h-0.7L21.4,37z M15.6,41h0.8c0.3,0,0.5,0,0.8-0.1c0.2-0.1,0.4-0.2,0.6-0.3c0.2-0.1,0.3-0.3,0.4-0.5
				c0.1-0.2,0.2-0.5,0.2-0.7c0-0.2,0-0.3-0.1-0.5c-0.1-0.2-0.1-0.4-0.3-0.6c-0.1-0.2-0.3-0.3-0.6-0.5c-0.2-0.1-0.5-0.2-0.9-0.2h-0.9
				L15.6,41z M14.9,37h1.6c0.3,0,0.6,0,0.9,0.1c0.2,0.1,0.5,0.2,0.6,0.3c0.2,0.1,0.3,0.3,0.5,0.4c0.1,0.2,0.2,0.3,0.3,0.5
				c0.1,0.3,0.2,0.6,0.2,1c0,0.3-0.1,0.6-0.2,0.9c-0.1,0.3-0.3,0.5-0.5,0.7c-0.2,0.2-0.5,0.4-0.8,0.5c-0.4,0.1-0.7,0.2-1.1,0.2h-1.5
				L14.9,37z M13.2,37h0.6v4.6h-0.6V37z M9.8,37h0.6v4h2.1v0.6H9.8V37z M7.8,39.9l-0.9-2.1h0L6,39.9H7.8z M6.6,37h0.6l2,4.6H8.5
				L8,40.5H5.8l-0.5,1.1H4.6L6.6,37z M0.4,37h0.7l1.4,3.7h0L3.9,37h0.7l-1.8,4.6H2.2L0.4,37z"/>
		</g>
	</g>
</g>
</svg>
